<?xml version="1.0" standalone="no"?><!DOCTYPE svg PUBLIC "-//W3C//DTD SVG 1.1//EN" "http://www.w3.org/Graphics/SVG/1.1/DTD/svg11.dtd"><svg t="1518972657368" class="icon" style="" viewBox="0 0 1024 1024" version="1.1" xmlns="http://www.w3.org/2000/svg" p-id="1936" xmlns:xlink="http://www.w3.org/1999/xlink" width="200" height="200"><defs><style type="text/css"></style></defs><path d="M995.830324 995.833186c-37.551478 37.555771-98.442595 37.555771-135.998366 0L690.099793 826.096728c-69.778525 44.731805-152.275014 71.438385-241.32652 71.438385C200.92894 897.535113 0.002848 696.614745 0.002848 448.770411 0.002848 200.920354 200.92894-1.4e-05 448.773273-1.4e-05c247.855781 0 448.770426 200.920368 448.770426 448.770426 0 89.047214-26.700857 171.536548-71.439816 241.333675l169.726442 169.725011C1033.386095 897.384867 1033.386095 958.277416 995.830324 995.833186L995.830324 995.833186zM448.773273 128.218472C271.747739 128.218472 128.23135 271.734861 128.23135 448.770411c0 177.031258 143.510665 320.547647 320.541923 320.547647 177.036982 0 320.547647-143.516389 320.547647-320.547647C769.32092 271.734861 625.810255 128.218472 448.773273 128.218472L448.773273 128.218472zM448.773273 128.218472" p-id="1937" fill="#ffffff"></path></svg>